<svg width="650.6" height="94.001" viewBox="0 0 650.6 94.001" xmlns="http://www.w3.org/2000/svg"><g id="svgGroup" stroke-linecap="round" fill-rule="evenodd" font-size="9pt" stroke="#000" stroke-width="0.15mm" fill="#000" style="stroke:#000;stroke-width:0.15mm;fill:#000"><path d="M 8.5 71.6 L 0 71.6 L 22.1 6 L 31.5 6 L 53.6 71.6 L 44.8 71.6 L 33.4 34.9 Q 31.7 29.4 30.05 23.95 Q 28.4 18.5 26.9 12.8 L 26.5 12.8 Q 24.9 18.5 23.3 23.95 Q 21.7 29.4 20 34.9 L 8.5 71.6 Z M 41.7 51.6 L 11.6 51.6 L 11.6 44.9 L 41.7 44.9 L 41.7 51.6 Z" id="0" vector-effect="non-scaling-stroke"/><path d="M 72 71.6 L 63.2 71.6 L 81.7 46.4 L 64.6 23 L 73.7 23 L 81.4 33.7 Q 82.7 35.6 84.2 37.7 Q 85.7 39.8 87.1 41.9 L 87.5 41.9 Q 88.8 39.8 90.25 37.65 Q 91.7 35.5 93 33.5 L 100.3 23 L 109 23 L 91.7 47.1 L 110.3 71.6 L 101.3 71.6 L 92.8 60.4 Q 91.3 58.3 89.65 56 Q 88 53.7 86.4 51.6 L 86 51.6 Q 84.5 53.7 83 55.9 Q 81.5 58.1 80 60.4 L 72 71.6 Z" id="1" vector-effect="non-scaling-stroke"/><path d="M 146.8 72.8 Q 140.4 72.8 134.95 69.8 A 22.827 22.827 0 0 1 126.469 61.629 A 27.142 27.142 0 0 1 126.15 61.1 Q 122.8 55.4 122.8 47.4 A 33.573 33.573 0 0 1 123.353 41.15 Q 124.11 37.151 125.906 33.927 A 21.128 21.128 0 0 1 126.15 33.5 A 23.635 23.635 0 0 1 131.89 26.827 A 22.301 22.301 0 0 1 134.95 24.8 Q 140.4 21.8 146.8 21.8 Q 153.2 21.8 158.65 24.8 A 22.827 22.827 0 0 1 167.131 32.972 A 27.142 27.142 0 0 1 167.45 33.5 A 23.454 23.454 0 0 1 170.159 40.704 Q 170.76 43.619 170.797 46.954 A 39.644 39.644 0 0 1 170.8 47.4 A 31.955 31.955 0 0 1 170.159 53.96 A 23.491 23.491 0 0 1 167.45 61.1 A 23.635 23.635 0 0 1 161.71 67.774 A 22.301 22.301 0 0 1 158.65 69.8 Q 153.2 72.8 146.8 72.8 Z M 146.8 66 A 15.839 15.839 0 0 0 151.328 65.376 A 13.379 13.379 0 0 0 155 63.65 A 14.863 14.863 0 0 0 159.767 58.368 A 18.206 18.206 0 0 0 160.4 57.1 Q 162.3 52.9 162.3 47.4 A 28.057 28.057 0 0 0 161.883 42.447 A 21.055 21.055 0 0 0 160.4 37.55 Q 158.5 33.3 155 30.95 Q 151.5 28.6 146.8 28.6 Q 142.1 28.6 138.65 30.95 A 15.034 15.034 0 0 0 134.175 35.782 A 18.844 18.844 0 0 0 133.25 37.55 A 20.966 20.966 0 0 0 131.622 43.073 A 27.924 27.924 0 0 0 131.3 47.4 A 26.364 26.364 0 0 0 131.758 52.423 A 20.187 20.187 0 0 0 133.25 57.1 A 17.081 17.081 0 0 0 135.831 61.141 A 14.638 14.638 0 0 0 138.65 63.65 A 13.523 13.523 0 0 0 144.804 65.888 A 17.3 17.3 0 0 0 146.8 66 Z" id="2" vector-effect="non-scaling-stroke"/><path d="M 194.3 71.6 L 186.1 71.6 L 186.1 23 L 192.9 23 L 193.6 31.3 L 194 31.3 A 40.118 40.118 0 0 1 200.17 25.843 A 35.974 35.974 0 0 1 202.2 24.5 Q 206.6 21.8 212.3 21.8 A 23.408 23.408 0 0 1 217.123 22.265 Q 222.149 23.324 225 26.8 Q 228.163 30.658 228.886 37.253 A 38.12 38.12 0 0 1 229.1 41.4 L 229.1 71.6 L 220.9 71.6 L 220.9 42.5 A 29.365 29.365 0 0 0 220.694 38.9 Q 220.197 34.883 218.495 32.511 A 8.646 8.646 0 0 0 218.3 32.25 A 7.988 7.988 0 0 0 214.509 29.612 Q 213.136 29.134 211.437 28.977 A 18.903 18.903 0 0 0 209.7 28.9 Q 205.4 28.9 202 31.1 Q 198.6 33.3 194.3 37.7 L 194.3 71.6 Z" id="3" vector-effect="non-scaling-stroke"/><path d="M 326.8 71.6 L 306.7 71.6 L 306.7 6 L 325.3 6 A 47.747 47.747 0 0 1 330.847 6.307 Q 334.209 6.7 337.05 7.6 A 18.932 18.932 0 0 1 341.175 9.44 A 14.568 14.568 0 0 1 344.95 12.7 A 12.134 12.134 0 0 1 347.274 17.441 Q 347.8 19.508 347.8 22 Q 347.8 26.9 345 30.85 A 12.687 12.687 0 0 1 340.473 34.735 Q 338.743 35.648 336.589 36.225 A 23.278 23.278 0 0 1 336.3 36.3 L 336.3 36.7 A 26.664 26.664 0 0 1 341.156 37.886 Q 343.956 38.875 346.065 40.468 A 15.056 15.056 0 0 1 347.5 41.7 A 12.893 12.893 0 0 1 351.107 48.422 A 19.097 19.097 0 0 1 351.5 52.4 A 21.822 21.822 0 0 1 350.969 57.34 A 15.867 15.867 0 0 1 348.4 63.1 Q 345.3 67.4 339.75 69.5 A 31.186 31.186 0 0 1 333.433 71.123 Q 330.327 71.6 326.8 71.6 Z M 315 40.6 L 315 64.6 L 325.6 64.6 A 38.7 38.7 0 0 0 330.484 64.312 Q 332.968 63.995 335.01 63.33 A 16.048 16.048 0 0 0 338.65 61.65 A 9.629 9.629 0 0 0 343.005 55.138 A 15.733 15.733 0 0 0 343.3 52 A 12.747 12.747 0 0 0 342.858 48.535 A 8.615 8.615 0 0 0 338.75 43.25 A 16.354 16.354 0 0 0 334.957 41.688 Q 331.23 40.634 325.943 40.601 A 55.037 55.037 0 0 0 325.6 40.6 L 315 40.6 Z M 315 13 L 315 33.6 L 323.9 33.6 A 41.446 41.446 0 0 0 328.027 33.41 Q 332.143 32.996 334.68 31.685 A 9.349 9.349 0 0 0 335.95 30.9 A 8.71 8.71 0 0 0 339.342 25.425 A 13.637 13.637 0 0 0 339.6 22.7 A 11.373 11.373 0 0 0 339.261 19.827 A 7.209 7.209 0 0 0 335.75 15.2 A 13.665 13.665 0 0 0 332.66 13.948 Q 329.567 13.079 325.117 13.007 A 50.423 50.423 0 0 0 324.3 13 L 315 13 Z" id="5" vector-effect="non-scaling-stroke"/><path d="M 379.6 71.6 L 371.4 71.6 L 371.4 23 L 378.2 23 L 378.9 34.5 L 379.2 34.5 A 29.982 29.982 0 0 1 385.592 27.311 A 27.731 27.731 0 0 1 388.6 25.2 Q 394.2 21.8 400.9 21.8 A 28.758 28.758 0 0 1 404.138 21.976 A 24.011 24.011 0 0 1 405.95 22.25 Q 408.3 22.7 410.5 23.8 L 408.6 30.9 Q 406.71 30.22 405.221 29.825 A 23.577 23.577 0 0 0 404.3 29.6 Q 402.5 29.2 399.6 29.2 Q 394.1 29.2 389.05 32.35 Q 384 35.5 379.6 43.1 L 379.6 71.6 Z" id="6" vector-effect="non-scaling-stroke"/><path d="M 456.6 71.6 L 448.4 71.6 L 448.4 29.7 L 425.8 29.7 L 425.8 23 L 456.6 23 L 456.6 71.6 Z M 449.173 12.416 A 7.398 7.398 0 0 0 451.6 12.8 A 8.574 8.574 0 0 0 452.117 12.785 A 6.565 6.565 0 0 0 456.3 11.05 A 5.648 5.648 0 0 0 457.91 8.491 A 7.184 7.184 0 0 0 458.2 6.4 A 8.092 8.092 0 0 0 458.153 5.521 A 5.802 5.802 0 0 0 456.3 1.75 A 6.412 6.412 0 0 0 454.027 0.385 A 7.398 7.398 0 0 0 451.6 0 A 8.574 8.574 0 0 0 451.083 0.016 A 6.565 6.565 0 0 0 446.9 1.75 A 5.648 5.648 0 0 0 445.29 4.31 A 7.184 7.184 0 0 0 445 6.4 A 8.092 8.092 0 0 0 445.047 7.28 A 5.802 5.802 0 0 0 446.9 11.05 A 6.412 6.412 0 0 0 449.173 12.416 Z" id="7" vector-effect="non-scaling-stroke"/><path d="M 519.4 28.1 L 519.7 28.1 L 519.3 19.1 L 519.3 0.4 L 527.5 0.4 L 527.5 71.6 L 520.7 71.6 L 520 65.2 L 519.7 65.2 A 26.385 26.385 0 0 1 514.662 69.363 A 31.448 31.448 0 0 1 512.65 70.55 Q 508.5 72.8 503.9 72.8 A 21.964 21.964 0 0 1 496.574 71.628 A 18.671 18.671 0 0 1 488.6 66.15 A 21.884 21.884 0 0 1 484.205 57.991 Q 483.239 54.804 482.937 50.994 A 45.523 45.523 0 0 1 482.8 47.4 A 33.254 33.254 0 0 1 483.447 40.682 A 24.72 24.72 0 0 1 485.95 33.75 A 25.018 25.018 0 0 1 490.095 28.12 A 21.582 21.582 0 0 1 494.15 24.9 Q 499.2 21.8 504.9 21.8 A 19.479 19.479 0 0 1 509.982 22.445 A 17.097 17.097 0 0 1 512.75 23.45 A 23.498 23.498 0 0 1 518.022 26.852 A 27.724 27.724 0 0 1 519.4 28.1 Z M 519.3 58.6 L 519.3 34.4 Q 516.505 31.775 513.818 30.441 A 15.307 15.307 0 0 0 512.85 30 A 16.802 16.802 0 0 0 507.698 28.746 A 15.725 15.725 0 0 0 506.5 28.7 Q 502.3 28.7 498.85 31.05 Q 495.4 33.4 493.35 37.55 A 19.365 19.365 0 0 0 491.645 42.951 A 26.25 26.25 0 0 0 491.3 47.3 A 32.27 32.27 0 0 0 491.709 52.606 Q 492.547 57.625 495.1 60.95 A 12.212 12.212 0 0 0 503.97 65.823 A 16.769 16.769 0 0 0 505.6 65.9 A 14.292 14.292 0 0 0 511.961 64.381 A 16.983 16.983 0 0 0 512.6 64.05 Q 515.787 62.316 518.887 59.044 A 37.089 37.089 0 0 0 519.3 58.6 Z" id="8" vector-effect="non-scaling-stroke"/><path d="M 552 69.7 L 552 69.3 Q 550.1 68.2 548.55 66.3 Q 547.059 64.473 547.002 61.536 A 12.128 12.128 0 0 1 547 61.3 Q 547 59.063 548.419 56.684 A 13.567 13.567 0 0 1 548.5 56.55 A 13.132 13.132 0 0 1 550.883 53.703 A 17.098 17.098 0 0 1 552.8 52.2 L 552.8 51.8 A 14.613 14.613 0 0 1 549.842 48.747 A 18.672 18.672 0 0 1 548.55 46.7 A 14.094 14.094 0 0 1 547.016 42.088 A 18.583 18.583 0 0 1 546.8 39.2 Q 546.8 33.9 549.45 30 Q 552.1 26.1 556.45 23.95 Q 560.8 21.8 565.9 21.8 A 23.75 23.75 0 0 1 569.467 22.055 A 17.197 17.197 0 0 1 573.1 23 L 593.2 23 L 593.2 29.7 L 580.6 29.7 A 13.244 13.244 0 0 1 582.437 32.028 A 17.388 17.388 0 0 1 583.5 34 Q 584.7 36.6 584.7 39.5 A 18.108 18.108 0 0 1 584.151 44.057 A 14.349 14.349 0 0 1 582.2 48.45 Q 579.7 52.2 575.45 54.2 A 21.076 21.076 0 0 1 568.642 56.059 A 26.048 26.048 0 0 1 565.9 56.2 A 18.24 18.24 0 0 1 563.443 56.027 A 22.736 22.736 0 0 1 561.85 55.75 Q 559.7 55.3 557.7 54.4 A 11.182 11.182 0 0 0 556.211 55.478 A 8.154 8.154 0 0 0 554.9 56.9 Q 553.9 58.3 553.9 60 Q 553.9 62.8 556.55 64.2 Q 559.173 65.586 563.904 65.6 A 32.664 32.664 0 0 0 564 65.6 L 574.9 65.6 Q 583.266 65.6 587.79 67.66 A 12.941 12.941 0 0 1 588.85 68.2 Q 593.4 70.8 593.4 77 Q 593.4 81.5 590.1 85.4 Q 586.993 89.072 581.45 91.37 A 33.6 33.6 0 0 1 580.75 91.65 Q 575.091 93.848 567.465 93.991 A 57.108 57.108 0 0 1 566.4 94 A 52.683 52.683 0 0 1 561.076 93.746 Q 558.485 93.483 556.254 92.945 A 27.661 27.661 0 0 1 554.3 92.4 Q 549.3 90.8 546.65 87.8 A 10.515 10.515 0 0 1 544.013 81.099 A 13.525 13.525 0 0 1 544 80.5 Q 544 77.6 546.05 74.75 Q 547.956 72.101 551.461 70.013 A 26.372 26.372 0 0 1 552 69.7 Z M 574.2 72.4 L 564.7 72.4 Q 562.6 72.4 560.75 72.2 Q 558.9 72 557.3 71.6 A 22.323 22.323 0 0 0 555.37 72.803 Q 554.446 73.451 553.744 74.116 A 8.925 8.925 0 0 0 552.5 75.55 A 8.663 8.663 0 0 0 551.543 77.354 A 6.561 6.561 0 0 0 551.1 79.7 A 6.174 6.174 0 0 0 553.426 84.57 A 10.449 10.449 0 0 0 555.15 85.75 A 14.705 14.705 0 0 0 558.377 87.031 Q 561.619 87.928 566.244 87.995 A 52.194 52.194 0 0 0 567 88 A 39.081 39.081 0 0 0 571.367 87.769 Q 573.616 87.516 575.548 86.985 A 21.547 21.547 0 0 0 576.8 86.6 A 22.588 22.588 0 0 0 579.501 85.491 Q 581.691 84.41 583.1 83 Q 585.289 80.811 585.3 78.326 A 5.683 5.683 0 0 0 585.3 78.3 A 6.826 6.826 0 0 0 585.082 76.514 A 4.255 4.255 0 0 0 582.55 73.6 A 11.153 11.153 0 0 0 580.581 72.974 Q 578.525 72.504 575.555 72.419 A 47.443 47.443 0 0 0 574.2 72.4 Z M 565.9 50.7 A 11.869 11.869 0 0 0 570.072 49.977 A 11.135 11.135 0 0 0 571.55 49.3 Q 574.1 47.9 575.6 45.3 A 11.099 11.099 0 0 0 576.939 41.4 A 14.484 14.484 0 0 0 577.1 39.2 A 13.021 13.021 0 0 0 576.731 36.036 A 10.465 10.465 0 0 0 575.6 33.25 Q 574.1 30.7 571.55 29.25 A 11.188 11.188 0 0 0 566.093 27.802 A 13.147 13.147 0 0 0 565.9 27.8 Q 562.9 27.8 560.35 29.25 Q 557.8 30.7 556.25 33.25 A 10.624 10.624 0 0 0 554.809 37.454 A 13.57 13.57 0 0 0 554.7 39.2 A 13.329 13.329 0 0 0 555.064 42.38 A 10.588 10.588 0 0 0 556.25 45.3 Q 557.8 47.9 560.35 49.3 Q 562.9 50.7 565.9 50.7 Z" id="9" vector-effect="non-scaling-stroke"/><path d="M 650.2 49.6 L 609.1 49.6 L 609.1 43.2 L 645.3 43.2 L 643.2 45.5 A 29.961 29.961 0 0 0 642.852 40.773 Q 642.027 35.624 639.25 32.6 A 13.055 13.055 0 0 0 631.208 28.478 A 18.519 18.519 0 0 0 628.6 28.3 Q 624.1 28.3 620.25 30.5 A 15.807 15.807 0 0 0 614.583 36.068 A 19.158 19.158 0 0 0 614.1 36.9 A 17.886 17.886 0 0 0 612.307 41.889 Q 611.8 44.335 611.8 47.2 A 26.239 26.239 0 0 0 612.181 51.802 Q 612.646 54.411 613.678 56.543 A 15.199 15.199 0 0 0 614.3 57.7 Q 616.8 61.9 621.1 64.05 Q 625.4 66.2 630.8 66.2 Q 635.2 66.2 638.75 64.95 Q 642.3 63.7 645.6 61.6 L 648.6 67 A 36.035 36.035 0 0 1 643.69 69.727 A 44.307 44.307 0 0 1 640.35 71.1 Q 635.7 72.8 629.8 72.8 Q 622.5 72.8 616.55 69.8 Q 610.6 66.8 607.1 61.05 A 23.53 23.53 0 0 1 604.092 52.945 A 32.095 32.095 0 0 1 603.6 47.2 A 29.909 29.909 0 0 1 604.319 40.493 A 22.844 22.844 0 0 1 607.1 33.6 Q 610.6 27.9 616.25 24.85 Q 621.9 21.8 628.4 21.8 A 28.712 28.712 0 0 1 634.037 22.327 A 20.692 20.692 0 0 1 640.35 24.65 Q 645.3 27.5 647.95 32.6 A 23.071 23.071 0 0 1 650.196 39.484 A 31.039 31.039 0 0 1 650.6 44.6 A 35.755 35.755 0 0 1 650.526 46.933 A 32.139 32.139 0 0 1 650.5 47.3 Q 650.411 48.463 650.241 49.386 A 13.831 13.831 0 0 1 650.2 49.6 Z" id="10" vector-effect="non-scaling-stroke"/></g></svg>