<svg width="554.917" height="85.834" viewBox="0 0 554.917 85.834" xmlns="http://www.w3.org/2000/svg"><g id="svgGroup" stroke-linecap="round" fill-rule="evenodd" font-size="9pt" stroke="#000" stroke-width="0.3mm" fill="#000" style="stroke:#000;stroke-width:0.3mm;fill:#000"><path d="M 9.083 68 L 0 68 L 0 67.5 L 21.167 3 L 36.167 3 L 57.333 67.5 L 57.333 68 L 47.583 68 L 29.333 10.25 L 27.333 10.25 L 9.083 68 Z M 42.917 49.084 L 13.75 49.084 L 16.333 41.25 L 40.333 41.25 L 42.917 49.084 Z" id="0" vector-effect="non-scaling-stroke"/><path d="M 69.083 68 L 59.917 68 L 59.917 67.5 L 76.167 41.417 L 62 18.5 L 62 18 L 71.167 18 L 81.5 35.167 L 83 35.167 L 93.167 18 L 101.833 18 L 101.833 18.5 L 87.833 41.25 L 104.083 67.5 L 104.083 68 L 94.417 68 L 82.5 47.667 L 81 47.667 L 69.083 68 Z" id="1" vector-effect="non-scaling-stroke"/><path d="M 114.625 62.125 A 17.189 17.189 0 0 0 117.168 64.767 Q 122.527 69.25 131.583 69.25 A 35.997 35.997 0 0 0 132.06 69.247 Q 135.617 69.2 138.591 68.446 A 17.692 17.692 0 0 0 148.542 62.125 Q 154.083 55 154.083 43 A 48.348 48.348 0 0 0 154.005 40.21 Q 153.423 30.151 148.542 23.875 A 17.189 17.189 0 0 0 145.999 21.233 Q 140.639 16.75 131.583 16.75 A 35.997 35.997 0 0 0 131.107 16.753 Q 127.55 16.8 124.576 17.554 A 17.692 17.692 0 0 0 114.625 23.875 Q 109.083 31 109.083 43 A 48.348 48.348 0 0 0 109.162 45.79 Q 109.744 55.849 114.625 62.125 Z M 131.583 61.917 A 14.787 14.787 0 0 0 135.634 61.395 A 10.291 10.291 0 0 0 141.708 56.834 Q 144.192 52.898 144.753 46.765 A 41.383 41.383 0 0 0 144.917 43 A 38.786 38.786 0 0 0 144.571 37.653 Q 144.184 34.88 143.364 32.602 A 17.544 17.544 0 0 0 141.708 29.167 Q 138.5 24.084 131.583 24.084 A 14.787 14.787 0 0 0 127.533 24.605 A 10.291 10.291 0 0 0 121.458 29.167 Q 118.975 33.102 118.414 39.235 A 41.383 41.383 0 0 0 118.25 43 A 38.786 38.786 0 0 0 118.595 48.348 Q 118.982 51.121 119.802 53.399 A 17.544 17.544 0 0 0 121.458 56.834 Q 124.667 61.917 131.583 61.917 Z" id="2" vector-effect="non-scaling-stroke"/><path d="M 174 68 L 165 68 L 165 18 L 173 18 L 173 25.5 L 175 25.5 A 12.639 12.639 0 0 1 177.49 21.13 A 12.015 12.015 0 0 1 179.917 19.042 Q 183.417 16.75 188.833 16.75 A 22.448 22.448 0 0 1 193.606 17.224 Q 196.58 17.871 198.764 19.404 A 11.967 11.967 0 0 1 201.542 22.125 Q 205.37 27.323 205.496 35.365 A 35.16 35.16 0 0 1 205.5 35.917 L 205.5 68 L 196.5 68 L 196.5 37.834 A 29.068 29.068 0 0 0 196.278 34.111 Q 195.78 30.266 194.167 27.875 A 7.583 7.583 0 0 0 188.944 24.582 A 11.836 11.836 0 0 0 186.917 24.417 A 12.321 12.321 0 0 0 182.424 25.204 Q 179.542 26.323 177.545 29.032 A 13.832 13.832 0 0 0 177.417 29.209 Q 174 34 174 41.084 L 174 68 Z" id="3" vector-effect="non-scaling-stroke"/><path d="M 263.167 68 L 239.5 68 L 239.5 3 L 261.833 3 Q 272.652 3 278.046 6.854 A 13.612 13.612 0 0 1 278.625 7.292 A 13.707 13.707 0 0 1 283.936 17.217 A 17.934 17.934 0 0 1 284 18.75 A 14.51 14.51 0 0 1 283.072 23.985 A 13.535 13.535 0 0 1 281.625 26.75 A 10.657 10.657 0 0 1 277.061 30.504 A 15.169 15.169 0 0 1 274.333 31.417 L 274.333 33.417 A 19.026 19.026 0 0 1 278.573 34.637 A 13.095 13.095 0 0 1 283.792 38.542 A 14.326 14.326 0 0 1 286.51 44.35 Q 286.985 46.427 287 48.844 A 25.498 25.498 0 0 1 287 49 A 20.089 20.089 0 0 1 285.962 55.594 A 16.957 16.957 0 0 1 281.167 62.75 A 17.923 17.923 0 0 1 275.118 66.246 Q 272.429 67.205 269.106 67.64 A 45.871 45.871 0 0 1 263.167 68 Z M 248.667 36.75 L 248.667 60.5 L 263.083 60.5 A 29.744 29.744 0 0 0 267.05 60.255 Q 271.466 59.659 273.932 57.614 A 8.57 8.57 0 0 0 274.208 57.375 Q 277.667 54.25 277.667 48.5 A 14.668 14.668 0 0 0 277.263 44.957 A 9.962 9.962 0 0 0 274.25 39.834 A 10.165 10.165 0 0 0 270.945 37.895 Q 268.063 36.822 263.822 36.755 A 36.147 36.147 0 0 0 263.25 36.75 L 248.667 36.75 Z M 248.667 10.5 L 248.667 29.5 L 262 29.5 A 29.044 29.044 0 0 0 265.393 29.316 Q 269.391 28.844 271.667 27.167 A 7.501 7.501 0 0 0 274.569 22.586 A 11.892 11.892 0 0 0 274.833 20 A 9.827 9.827 0 0 0 273.901 15.569 Q 271.852 11.459 265.302 10.682 A 28.085 28.085 0 0 0 262 10.5 L 248.667 10.5 Z" id="5" vector-effect="non-scaling-stroke"/><path d="M 306.667 68 L 297.667 68 L 297.667 18 L 305.667 18 L 305.667 26.5 L 307.667 26.5 A 13.981 13.981 0 0 1 308.708 23.638 A 17.073 17.073 0 0 1 309.417 22.334 A 8.01 8.01 0 0 1 311.265 20.24 Q 312.105 19.558 313.19 18.991 A 14.197 14.197 0 0 1 313.417 18.875 Q 316.11 17.529 320.962 17.501 A 35.862 35.862 0 0 1 321.167 17.5 L 322.833 17.5 L 322.833 26 L 320.333 26 A 22.771 22.771 0 0 0 316.562 26.29 Q 314.58 26.624 313.036 27.342 A 8.932 8.932 0 0 0 309.75 29.875 Q 306.667 33.75 306.667 42 L 306.667 68 Z" id="6" vector-effect="non-scaling-stroke"/><path d="M 341.5 68 L 332.5 68 L 332.5 18 L 341.5 18 L 341.5 68 Z M 335.323 10.815 A 7.152 7.152 0 0 0 337 11 A 9.12 9.12 0 0 0 337.292 10.996 Q 338.173 10.967 338.91 10.767 A 4.569 4.569 0 0 0 341.083 9.5 A 5.004 5.004 0 0 0 342.303 7.226 A 7.148 7.148 0 0 0 342.5 5.5 A 7.349 7.349 0 0 0 342.355 4.001 A 5.062 5.062 0 0 0 341.083 1.5 A 4.312 4.312 0 0 0 340.425 0.93 Q 339.652 0.388 338.615 0.162 A 7.582 7.582 0 0 0 337 0 Q 334.417 0 332.958 1.5 A 4.96 4.96 0 0 0 331.705 3.766 A 6.947 6.947 0 0 0 331.5 5.5 A 7.236 7.236 0 0 0 331.629 6.896 A 5.037 5.037 0 0 0 332.958 9.5 A 4.78 4.78 0 0 0 335.323 10.815 Z" id="7" vector-effect="non-scaling-stroke"/><path d="M 385.333 24 L 387.333 24 L 387.333 1.334 L 396.333 1.334 L 396.333 68 L 388.333 68 L 388.333 61.5 L 386.333 61.5 Q 385.076 64.33 381.964 66.604 A 19.789 19.789 0 0 1 381.583 66.875 Q 378.167 69.25 372.417 69.25 A 21.076 21.076 0 0 1 366.998 68.584 A 16.547 16.547 0 0 1 361.5 66 A 19.191 19.191 0 0 1 356.037 59.811 A 24.656 24.656 0 0 1 354.625 56.875 A 31.013 31.013 0 0 1 352.844 50.469 Q 352.25 47 352.25 43 Q 352.25 35 354.625 29.125 A 23.208 23.208 0 0 1 357.415 24.05 A 18.61 18.61 0 0 1 361.458 20 A 16.813 16.813 0 0 1 369.109 16.966 A 22.142 22.142 0 0 1 372.25 16.75 Q 377.333 16.75 380.542 18.75 A 12.619 12.619 0 0 1 385.333 24 Z M 374 61.75 A 12.09 12.09 0 0 0 379.213 60.652 Q 381.684 59.489 383.539 57.093 A 15.254 15.254 0 0 0 383.917 56.584 Q 387.583 51.417 387.583 43 A 31.502 31.502 0 0 0 387.11 37.37 Q 386.529 34.178 385.238 31.616 A 17.068 17.068 0 0 0 383.917 29.417 A 12.584 12.584 0 0 0 380.363 25.977 Q 377.785 24.358 374.448 24.257 A 14.79 14.79 0 0 0 374 24.25 A 11.934 11.934 0 0 0 369.719 24.986 Q 366.809 26.095 364.864 28.877 A 13.43 13.43 0 0 0 364.667 29.167 Q 362.261 32.806 361.636 38.638 A 41.012 41.012 0 0 0 361.417 43 A 39.557 39.557 0 0 0 361.734 48.183 Q 362.432 53.453 364.667 56.834 A 10.905 10.905 0 0 0 368.194 60.28 Q 370.325 61.543 373.081 61.721 A 14.283 14.283 0 0 0 374 61.75 Z" id="8" vector-effect="non-scaling-stroke"/><path d="M 409.667 71.5 L 418.667 71.5 A 7.75 7.75 0 0 0 420.256 74.968 A 11.039 11.039 0 0 0 421.833 76.584 Q 423.736 78.189 427.122 78.649 A 22.061 22.061 0 0 0 430.083 78.834 Q 436.083 78.834 439.375 75.5 A 9.924 9.924 0 0 0 441.559 71.981 Q 442.147 70.425 442.423 68.482 A 26.628 26.628 0 0 0 442.667 64.75 L 442.667 59.167 L 440.667 59.167 A 11.922 11.922 0 0 1 436.816 64.203 A 14.684 14.684 0 0 1 436.125 64.709 Q 432.917 66.917 427.417 66.917 A 20.384 20.384 0 0 1 420.661 65.845 A 17.154 17.154 0 0 1 412.792 60.167 Q 408.173 54.366 407.523 44.873 A 46.978 46.978 0 0 1 407.417 41.667 A 41.595 41.595 0 0 1 407.863 35.41 Q 408.374 32.058 409.467 29.218 A 24.974 24.974 0 0 1 409.792 28.417 A 21.343 21.343 0 0 1 412.768 23.368 A 17.786 17.786 0 0 1 416.625 19.792 A 17.407 17.407 0 0 1 424.229 16.946 A 22.62 22.62 0 0 1 427.25 16.75 Q 431.085 16.75 433.753 17.788 A 10.004 10.004 0 0 1 436.125 19.084 A 15.949 15.949 0 0 1 438.823 21.604 A 12.84 12.84 0 0 1 440.667 24.5 L 442.667 24.5 L 442.667 18 L 450.667 18 L 450.667 65.25 Q 450.667 75.25 445.25 80.542 A 17.474 17.474 0 0 1 437.905 84.747 Q 435.181 85.562 431.909 85.766 A 36.098 36.098 0 0 1 429.667 85.834 A 35.458 35.458 0 0 1 425.754 85.63 Q 423.804 85.413 422.143 84.965 A 18.174 18.174 0 0 1 420.667 84.5 A 21.468 21.468 0 0 1 417.618 83.129 Q 415.969 82.218 414.707 81.078 A 13.418 13.418 0 0 1 414.667 81.042 A 16.154 16.154 0 0 1 412.437 78.569 A 13.203 13.203 0 0 1 411.167 76.417 A 18.504 18.504 0 0 1 410.054 73.401 A 15.429 15.429 0 0 1 409.667 71.5 Z M 428.5 59.417 Q 434.917 59.417 438.417 54.459 A 18.387 18.387 0 0 0 441.27 47.922 Q 441.856 45.39 441.911 42.447 A 32.88 32.88 0 0 0 441.917 41.834 A 28.299 28.299 0 0 0 441.439 36.48 Q 440.616 32.21 438.375 29.125 A 11.231 11.231 0 0 0 430.288 24.347 A 14.685 14.685 0 0 0 428.583 24.25 A 11.8 11.8 0 0 0 424.47 24.936 Q 421.571 26.006 419.644 28.746 A 12.861 12.861 0 0 0 419.583 28.834 A 15.689 15.689 0 0 0 417.533 33.19 Q 416.905 35.241 416.63 37.719 A 37.407 37.407 0 0 0 416.417 41.834 Q 416.417 47.357 417.762 51.23 A 15.246 15.246 0 0 0 419.542 54.834 A 9.955 9.955 0 0 0 426.743 59.305 A 13.382 13.382 0 0 0 428.5 59.417 Z" id="9" vector-effect="non-scaling-stroke"/><path d="M 504.917 42.75 L 504.917 45.334 L 470.333 45.334 A 28.777 28.777 0 0 0 471.11 50.662 Q 472.068 54.506 474.125 57.375 A 10.978 10.978 0 0 0 482.081 61.966 A 16.457 16.457 0 0 0 484.083 62.084 A 13.805 13.805 0 0 0 487.388 61.709 A 9.826 9.826 0 0 0 491.75 59.417 A 12.974 12.974 0 0 0 494.565 55.637 Q 495.364 54.055 495.883 52.125 A 22.382 22.382 0 0 0 495.917 52 L 504.417 52 A 28.707 28.707 0 0 1 502.631 57.611 A 24.075 24.075 0 0 1 500.833 60.959 A 17.59 17.59 0 0 1 494.167 67.042 Q 490 69.25 484 69.25 A 26.712 26.712 0 0 1 477.207 68.437 A 18.173 18.173 0 0 1 467.292 62.042 Q 461.583 54.834 461.583 43 A 40.833 40.833 0 0 1 462.123 36.195 A 29.855 29.855 0 0 1 464.125 29.292 A 21.667 21.667 0 0 1 468.246 22.941 A 19.947 19.947 0 0 1 471.625 20.084 A 19.062 19.062 0 0 1 478.5 17.269 A 26.88 26.88 0 0 1 483.917 16.75 A 25.082 25.082 0 0 1 490.32 17.52 A 17.122 17.122 0 0 1 499.542 23.417 Q 504.917 30.084 504.917 42.75 Z M 470.417 38.834 L 496.167 38.834 A 27.128 27.128 0 0 0 495.699 34.54 Q 494.876 30.356 492.667 27.75 A 10.651 10.651 0 0 0 485.234 23.981 A 15.037 15.037 0 0 0 483.833 23.917 A 14.363 14.363 0 0 0 479.792 24.456 A 10.783 10.783 0 0 0 474.542 27.834 Q 471.167 31.75 470.417 38.834 Z" id="10" vector-effect="non-scaling-stroke"/></g></svg>